<svg width="64" height="64" viewBox="0 0 100 100" fill="none" xmlns="http://www.w3.org/2000/svg">
  <defs>
    <linearGradient id="strumlyFaviconGrad" x1="15%" y1="10%" x2="85%" y2="95%">
      <stop offset="0%" stop-color="#FF6B35" />
      <stop offset="45%" stop-color="#FF416C" />
      <stop offset="100%" stop-color="#7928CA" />
    </linearGradient>
    <linearGradient id="strumlyHighlight" x1="50%" y1="0%" x2="50%" y2="60%">
      <stop offset="0%" stop-color="#FFFFFF" stop-opacity="0.35" />
      <stop offset="100%" stop-color="#FFFFFF" stop-opacity="0" />
    </linearGradient>
  </defs>

  <!-- Palheta -->
  <path
    d="M50 94C37 81.5 14 55 14 33C14 17.5 29.5 9 50 9C70.5 9 86 17.5 86 33C86 55 63 81.5 50 94Z"
    fill="url(#strumlyFaviconGrad)"
  />

  <!-- Brilho no topo -->
  <path
    d="M50 11C68 11 83 18.5 83 33C83 45 74 61 64 73C58 64 54 48 53 35C52 23 48 15 50 11Z"
    fill="url(#strumlyHighlight)"
  />

  <!-- Cordas Diagonais -->
  <line x1="26" y1="70" x2="74" y2="22" stroke="#FFFFFF" stroke-width="3" stroke-linecap="round" stroke-opacity="0.4" />
  <line x1="33" y1="77" x2="81" y2="29" stroke="#FFFFFF" stroke-width="2.2" stroke-linecap="round" stroke-opacity="0.3" />
  <line x1="19" y1="63" x2="67" y2="15" stroke="#FFFFFF" stroke-width="2.2" stroke-linecap="round" stroke-opacity="0.3" />

  <!-- Sônico S -->
  <path
    d="M62 27C55 21 41 22 36 29C30 37 38 46 47 49C57 52 64 57 61 68C58 76 46 78 37 73"
    stroke="#FFFFFF"
    stroke-width="6"
    stroke-linecap="round"
    stroke-linejoin="round"
  />

  <!-- Pontos sonoros -->
  <circle cx="62" cy="27" r="2.5" fill="#FFD54F" />
  <circle cx="37" cy="73" r="2.5" fill="#4ECAFF" />
</svg>